<?xml version="1.0" encoding="UTF-8"?>
<!-- Created with Inkscape (http://www.inkscape.org/) -->
<svg width="197" height="752" version="1.1" viewBox="0 0 197 752" xmlns="http://www.w3.org/2000/svg" xmlns:cc="http://creativecommons.org/ns#" xmlns:dc="http://purl.org/dc/elements/1.1/" xmlns:rdf="http://www.w3.org/1999/02/22-rdf-syntax-ns#"><metadata><rdf:RDF><cc:Work rdf:about=""><dc:format>image/svg+xml</dc:format><dc:type rdf:resource="http://purl.org/dc/dcmitype/StillImage"/><dc:title/></cc:Work></rdf:RDF></metadata><g transform="translate(.09901 .22819)"><path d="m0 376v-376h197v752h-197z" fill="#fefefe"/><path d="m83.5 724.48-10-2.3795-15-5.7123.66968-8.889 8.5356-26 4.1293-13 2.2961-12 .57005-18.5.57005-18.5-2.3629-34-1.9806-13-1.062-3.5h-2.8838l-33.481-12.237-12-6.029-9.5-6.202v-9.6117l3.7934-7.4203 7.7929-7.1979 8.4223-5.5736 11.491 2.1813 7.5917.97925 2.0975-5.3891 2.9703-17 1.7747-46 1.0119-78.5 1.0119-78.5.95471-23 .95471-23 2.1241-64 .97274-35 .97274-35 3.1806-23 1.7126-7 4.3029-15 9-18.409 10.106-13.091h3.0285l7.4072 2.2193 8.1128 13.281 5.1816 10.373 4.8218 12.81 2.0392 8.4081 2.0392 8.4081 1.1694 8 3.0046 63 1.4553 48.034 1.4553 48.034 2.0352 62.933 1.9976 120 2.1023 50 2.9931 17 2.9733 10.5h2.1089l13.67-6h2.8179l15.055 15.5 3.2184 6.2594 3.0439 8.7406.0146 2.7148.0146 2.7148-3.7532 2.0087-26.747 10.2-16 4.9952-11.571 3.131-1.8939 3.5387-1.4644 9.3486-1.4645 9.3486-1.5532 16.806-1.5532 16.806-.001 6.1944-.001 6.1944 1.0736 8.5 1.0737 8.5 1.4424 10.615 1.4423 10.615 7.2231 14.77 5.7475 16.496v9.5601l-25.5 8.2608-4.7644 1.0914-4.765 1.0914-9.4713-.1397zm-.48965-457.73 1.0874-4.25 2.0738-6 8.2153-28 1.2395-107 5.6356-12.952 13.22-21.048-.28061-1.5-.2806-1.5-1.8196-4-2.92-9-10.515-20.566-1.5062 1.5656-9.3764 18-5.597 16-1.134 6.5-1.134 6.5-1.875 10-3.1245 118-1.9116 22-.0068 13.494 7.2327 8.0058h1.6902l1.0874-4.25z" fill="#daedf9"/><path d="m86 724.98-8.5-1.8266-19-6.8147.33526-4.3288.33526-4.3288 12.871-39.182 2.4341-14 .0172-52-1.3721-13.896-1.3721-13.896-1.3107-4.9007-21.938-7.4683-13.867-5.5487-14.388-6.8295-8.4779-6.1414.89507-10.793 5.3259-7.5255 11.512-9.6716 16.189 1.1594 6.0253 1.2051 2.2676-9.0053 1.1191-6.8438 1.1191-6.8438 1.6939-45 .977-73.5.97701-73.5 1.0757-30.5 1.0757-30.5.98488-21 .98488-21 .05466-42 1.4176-26.5 1.4176-26.5 3.331-21 6.6511-20.33 5.0592-10.67 7.8666-12 6.1675-5.8303 7.9944 2.3952 6.1128 8.8846 6.7269 12.68 5.3702 13.423 4.9182 18.378.96767 13.035.96766 13.035 1.007 25 1.007 25 2.9392 90 1.0134 38.5 1.0134 38.5.99103 53.5.99104 53.5 1.0674 25.5 1.0674 25.5 1.4599 8 1.4599 8 3.0271 10.5h2.111l14.984-6h.99735l12.082 11.5 2.8584 4.1417 2.8584 4.1417 4.1881 11.194-.31754 2.6997-.31753 2.6997-19 7.631-29 9.7372-10.28 2.5771-1.1313 3.7759-1.1313 3.7759-2.01 17.313-2.01 17.313-.60312 11.5-.60313 11.5 1.6732 15 1.6731 15 2.2528 12 8.402 18.174 4.3956 14.203-.62812 7.563-15 5.596-19.798 4.9649-8.2021-.19217zm42.119-244.48-1.1556-15-.95778-31.5-.95777-31.5-1.3758-60-4.6592 15-2.4584 12-2.4584 12-2.0607 18-2.9379 46-.66841 19.695-.6684 19.695 5.7397 5.047 1.3141.0632 13.686 9.0081.38717-1.7541.38716-1.7541zm-46.674-48.943 7.5554-3.4431.04909-9.8069.04909-9.8069 1.6672-63.709 4.2455-5.2913 2.8453-4-.88935-18.5-.88936-18.5-.28869-85.5-.28869-85.5 2.7756-11 2.7736-5.546 2.7736-5.546 11.134-17.733-1.2323-5.1751-.7298-1-.72979-1-3.3453-10.259-10.14-19.741-.66216-.71617-3.1258 6.7162-6.8125 13-5.1893 13-4.8796 24-2.2148 80-1.928 44-.93565 33-.93565 33-2.246 120.8 3.5787 17.705h.46068z" fill="#e6d4b4"/><path d="m86 724.98-8.5-1.8266-19-6.8147.33526-4.3288.33526-4.3288 12.871-39.182 2.4341-14 .0172-52-1.3721-13.896-1.3721-13.896-1.3107-4.9007-21.938-7.4683-13.867-5.5487-14.388-6.8295-8.4779-6.1414.89507-10.793 5.3259-7.5255 11.512-9.6716 16.189 1.1594 6.0253 1.2051 2.2676-9.0053 1.1191-6.8438 1.1191-6.8438 1.6939-45 .977-73.5.97701-73.5 1.0757-30.5 1.0757-30.5.98488-21 .98488-21 .05466-42 1.4176-26.5 1.4176-26.5 3.331-21 6.6511-20.33 5.0592-10.67 7.8666-12 6.1675-5.8303 7.9944 2.3952 6.1128 8.8846 6.7269 12.68 5.3702 13.423 4.9182 18.378.96767 13.035.96766 13.035 1.007 25 1.007 25 2.9392 90 1.0134 38.5 1.0134 38.5.99103 53.5.99104 53.5 1.0674 25.5 1.0674 25.5 1.4599 8 1.4599 8 3.0271 10.5h2.111l14.984-6h.99735l12.082 11.5 2.8584 4.1417 2.8584 4.1417 4.1881 11.194-.31754 2.6997-.31753 2.6997-19 7.631-29 9.7372-10.28 2.5771-1.1313 3.7759-1.1313 3.7759-2.01 17.313-2.01 17.313-.60312 11.5-.60313 11.5 1.6732 15 1.6731 15 2.2528 12 8.402 18.174 4.3956 14.203-.62812 7.563-15 5.596-19.798 4.9649-8.2021-.19217zm20-20.981v-7h-11.858l-2.2599 11.5-.81912 2.5h14.937zm-2.1932-191.74.30685-3.0857 7.6794-12.674-.3823-.63142-.38231-.63141-13.214-5.6162-15.024 7.6309 18.68 18.758 1.0148-.33196 1.0148-.33195zm24.312-31.76-1.1556-15-.95778-31.5-.95777-31.5-1.3758-60-4.6592 15-2.4584 12-2.4584 12-2.0607 18-2.9379 46-.66841 19.695-.6684 19.695 5.7397 5.047 1.3141.0632 13.686 9.0081.38717-1.7541.38716-1.7541zm-46.674-48.943 7.5554-3.4431.04909-9.8069.04909-9.8069 1.6672-63.709 4.2455-5.2913 2.8453-4-.88935-18.5-.88936-18.5-.28869-85.5-.28869-85.5 2.7756-11 2.7736-5.546 2.7736-5.546 11.134-17.733-1.2323-5.1751-.7298-1-.72979-1-3.3453-10.259-10.14-19.741-.66216-.71617-3.1258 6.7162-6.8125 13-5.1893 13-4.8796 24-2.2148 80-1.928 44-.93565 33-.93565 33-2.246 120.8 3.5787 17.705h.46068z" fill="#cfced1"/><path d="m86 725.05-4.5-.84737-20-6.9954-3.6032-1.4588.64179-3.1232.64179-3.1232 5.0473-17 7.6706-23 .98533-6 .98534-6 2.3833-21.174-.50787-12.413-.50787-12.413-1.7329-18.986-1.7329-18.986-1.5438-4.0604-14.727-4.6951-23-8.9343-14-7.2448-6.5-4.83v-7.6324l1.9933-5.2429 10.334-10.926 6.806-4.2064 14.367 1.3331 6.1938 1.0773 2.4242-9.6652 2.1791-8 .89224-25 .89224-25 .86912-63 .86912-63 1.0353-39.5 1.0353-39.5 1.247-16.908.92214-40.046.92214-40.046 1.9136-41.431 2.2509-16.439 4.9947-18.766 7.0585-16.862 7.9362-12.279 6.5063-6.8964 8.2008 2.2082 8.5346 13.465 3.1757 6.5 3.1757 6.5 2.5214 7 2.5214 7 2.0686 10.5 2.0686 10.5 1.0562 25 1.0562 25 1.9757 58 2.9701 87 2.025 123 1.029 28.5 1.029 28.5 1.6974 25 4.618 18.703 2.447.93901 15.387-6.1613 9.5193 7.97 7.1355 8.7079 2.1381 4.102 2.1381 4.102.56513 5.4756.56514 5.4756-6.1416 3.176-13.619 5.0936-16 5.7438-22 6.4129-1.4187 1.2785-5.466 34.981-.0966 46 2.3214 12.5 2.3213 12.5 7.6155 16.069 5.2232 16.534v6.6796l-8.5 3.4359-18 6.0073-21 .66939-4.5-.84738zm20-21.048v-7h-11.858l-2.2599 11.5-.81912 2.5h14.937zm-1.935-192.18.57225-3.5205 5.3865-9.1913.98813-.6107.98814-.6107v-1.9037l-13.81-6.597-15.481 7.7893 18.761 18.839 1.0112-.33708 1.0112-.33707zm24.935-19.736v-6.9204l-.97987-14.83-.97988-14.83-.99874-32-.99875-32-.67219-25.344-.6722-25.344-2.7145 6.456-4.2213 16.232-1.2832 7-1.2832 7-3.1277 19-1.0449 21.5-1.0449 21.5-.85995 19-.85996 19 1.2413 8.9263 8.9915 6.0737 10.008 6.2965.75.10174.75.10175zm-47.555-60.523 7.5554-3.4431.04909-9.8069.04909-9.8069 1.6672-63.709 4.2455-5.2913 2.8443-4-1.6698-35-.19866-52-.19866-52 .13876-63 2.0107-14.11 2.542-5.7479 2.542-5.7479 12.108-19.027-.68432-3.1839-.68433-3.1839-6.8016-17-8.7035-15.783-7.4816 13.378-6.9409 16.404-4.5955 18-1.1575 8-1.061 37-1.061 37-1.9664 35-2.8676 135-.66182 33.777-.66182 33.777 3.6277 17.947h.46068z" fill="#bacbdf"/><path d="m86 725.05-4.5-.84737-20-6.9954-3.6032-1.4588.64179-3.1232.64179-3.1232 5.0473-17 7.6706-23 .98533-6 .98534-6 2.3833-21.174-.50787-12.413-.50787-12.413-1.7329-18.986-1.7329-18.986-1.5438-4.0604-14.727-4.6951-23-8.9343-14-7.2448-6.5-4.83v-7.6324l1.9933-5.2429 10.334-10.926 6.806-4.2064 14.367 1.3331 6.1938 1.0773 2.4242-9.6652 2.1791-8 .89224-25 .89224-25 .86912-63 .86912-63 1.0353-39.5 1.0353-39.5 1.247-16.908.92214-40.046.92214-40.046 1.9136-41.431 2.2509-16.439 4.9947-18.766 7.0585-16.862 7.9362-12.279 6.5063-6.8964 8.2008 2.2082 8.5346 13.465 3.1757 6.5 3.1757 6.5 2.5214 7 2.5214 7 2.0686 10.5 2.0686 10.5 1.0562 25 1.0562 25 1.9757 58 2.9701 87 2.025 123 1.029 28.5 1.029 28.5 1.6974 25 4.618 18.703 2.447.93901 15.387-6.1613 9.5193 7.97 7.1355 8.7079 2.1381 4.102 2.1381 4.102.56513 5.4756.56514 5.4756-6.1416 3.176-13.619 5.0936-16 5.7438-22 6.4129-1.4187 1.2785-5.466 34.981-.0966 46 2.3214 12.5 2.3213 12.5 7.6155 16.069 5.2232 16.534v6.6796l-8.5 3.4359-18 6.0073-21 .66939-4.5-.84738zm20-21.048v-7h-11.858l-2.2599 11.5-.81912 2.5h14.937zm-1.935-192.18.57225-3.5205 5.3865-9.1913.98813-.6107.98814-.6107v-1.9037l-13.81-6.597-15.481 7.7893 18.761 18.839 1.0112-.33708 1.0112-.33707zm-14.9-39.695.16487-12.62-.47986-25 2.1727-89.691 7.1245-8.6945-2.082-84.615-.21674-27.5-.21674-27.5.14757-31.5.14757-31.5 2.0107-14.11 2.542-5.7479 2.542-5.7479 12.108-19.027-.68432-3.1839-.68433-3.1839-6.8016-17-8.7035-15.783-7.4816 13.378-6.9409 16.404-4.5955 18-.57738 4-.57738 4-2.1 73-1.0007 19-1.0007 19-.96706 36.5-.96706 36.5-2.164 114-.41724 11-.41724 11-.62612 36.762-.62612 36.762 21.203-14.285zm39.835 19.96v-6.9204l-.97987-14.83-.97988-14.83-.99874-32-.99875-32-.67219-25.344-.6722-25.344-2.7145 6.456-4.2213 16.232-1.2832 7-1.2832 7-3.1277 19-1.0449 21.5-1.0449 21.5-.85995 19-.85996 19 1.2413 8.9263 8.9915 6.0737 10.008 6.2965.75.10174.75.10175z" fill="#bbb6cb"/><path d="m86.5 725.02-5-.85924-20-6.9471-1.7429-.71235-1.7429-.71236 1.1025-5.2915 3.0884-11 9.7309-29.391 4.2692-29.609-.99413-32-3.2776-35-1.69-4-30.744-10.861-16.333-7.4704-11.167-7.1437v-8.2226l3.2141-6.7732 12.83-12.002 4.7702-1.1972 18.446 2.2428.30188-.30189.30188-.30188 4.3853-15.969 1.8398-49 1.6971-124 2.1877-80 1.0128-21.046 1.0128-21.046-.0078-15.454-.0078-15.454 2.0708-50 .99931-14.488.99936-14.488 5.8143-24.025 7.3312-17.498 7.5336-11.502 6.785-7.7069 8.3247 2.2416 7.8906 12.494 6.2675 12.416 5.6473 15.556 2.5032 13 1.8024 9 2.0433 50 1.0389 32.5 1.0389 32.5 1.8601 42 2.0482 119 1.0422 37 1.0422 37 1.0205 22.5 1.0205 22.5.83204 4.5.83205 4.5 3.4212 13 1.6221 1.7159 7.6841-2.4678 8.5658-3.828 8.5785 7.0294 8.0704 9.571 4.4561 8.7347 1.095 10.61-8.7658 3.9928-13.004 5.081-11.996 4.1367-24 7.1445-1.4657 1.3459-2.6772 16.467-2.6772 16.467-.18 49 4.7732 24.832 7.5421 15.273 5.1847 16.998v6.2531l-10.5 3.8891-16 5.49-20 .64641-5-.85924zm19.5-21.023v-7h-11.858l-2.2599 11.5-.81912 2.5h14.937zm-1.9476-192.08.55963-3.4179 5.5775-9.4991 1.8105-1.1189v-1.9037l-13.81-6.597-15.481 7.7893 18.761 18.839 1.0112-.33708 1.0112-.33707zm-24.052-20.632 8.5-5.8207 1.5601-28.965-1.0825-17 2.1183-93.997 2.7527-4.0026 5.1778-5.8417-.49696-1.5791-.49696-1.5792-2.0129-101 .21045-37 1.7358 8 1.0845 87 1.0356 16 1.0356 16 1.9835 17 3.3949 9 .1654 127 .74292 6 .74293 6 18.215 11.703 2.9378 1.1274-.68523-19.415-.6853-19.415-.94765-17.5-.94764-17.5-1.0421-39.5-1.0421-39.5-.9234-14.5-.92341-14.5-.54943-43-.54944-43-1.0244-47.5-1.0244-47.5-1.9118-21-1.0804-13.5-1.0804-13.5-2.1921-9.9419-4.7897-11.058-4.4048-8.91-5.3369-8.7244-5.0413 8.6344-7.2868 16-1.7512 3.3388-4.1621 16.301-1.8261 9.6287-1.0739 36.866-1.0739 36.866-.94473 16-.94473 16-3.0464 131-2.1318 68-1.1806 90.731 3.8003-2.1242z" fill="#c8b496"/><path d="m86.5 725.02-5-.85924-20-6.9471-1.7429-.71235-1.7429-.71236 1.1025-5.2915 3.0884-11 9.7309-29.391 4.2692-29.609-.99413-32-3.2776-35-1.69-4-30.744-10.861-16.333-7.4704-11.167-7.1437v-8.2226l3.2141-6.7732 12.83-12.002 4.7702-1.1972 18.446 2.2428.30188-.30189.30188-.30188 4.3853-15.969 1.8398-49 1.6971-124 2.1877-80 1.0128-21.046 1.0128-21.046-.0078-15.454-.0078-15.454 2.0708-50 .99931-14.488.99936-14.488 5.8143-24.025 7.3312-17.498 7.5336-11.502 6.785-7.7069 8.3247 2.2416 7.8906 12.494 6.2675 12.416 5.6473 15.556 2.5032 13 1.8024 9 2.0433 50 1.0389 32.5 1.0389 32.5 1.8601 42 2.0482 119 1.0422 37 1.0422 37 1.0205 22.5 1.0205 22.5.83204 4.5.83205 4.5 3.4212 13 1.6221 1.7159 7.6841-2.4678 8.5658-3.828 8.5785 7.0294 8.0704 9.571 4.4561 8.7347 1.095 10.61-8.7658 3.9928-13.004 5.081-11.996 4.1367-24 7.1445-1.4657 1.3459-2.6772 16.467-2.6772 16.467-.18 49 4.7732 24.832 7.5421 15.273 5.1847 16.998v6.2531l-10.5 3.8891-16 5.49-20 .64641-5-.85924zm20.5-21.023v-8h-11.755l-1.8846 2.5-2.2614 8-1.137 5.5h17.038zm0-131.06v-4.059l2 1.2361v-4.0274l-6.5-1.1165-6.7964-.47415-7.5988 10.861 1.0132 1.6394h17.882zm-3.4776-44.191-.6482-7.25 1.0054-6.8767 1.0054-6.8767 7.346-11.064-4.731-3.6384-1.5966-.0444-7.6528-3.6974-16.288 8.1974-18.918 17 .22792.65037.22792.65038 9.2573 9.6992 9.4949 9-.61347-10.699-.61347-10.699.98735-.61022.98735-.61028.01082 3.809.01082 3.809 2.7613 9 2.488 5.3899 11.229 1.2332 3 .64492 1.6706.232-.64819-7.25zm-23.522-37.464 8.5-5.8207 1.5601-28.965-1.0825-17 2.1183-93.997 2.7527-4.0026 5.1778-5.8417-.49696-1.5791-.49696-1.5792-2.0129-101 .21045-37 1.7358 8 1.0845 87 1.0356 16 1.0356 16 1.9835 17 3.3949 9 .1654 127 .74292 6 .74293 6 18.215 11.703 2.9378 1.1274-.68523-19.415-.6853-19.415-.94765-17.5-.94764-17.5-1.0421-39.5-1.0421-39.5-.9234-14.5-.92341-14.5-.54943-43-.54944-43-1.0244-47.5-1.0244-47.5-1.9118-21-1.0804-13.5-1.0804-13.5-2.1921-9.9419-4.7897-11.058-4.4048-8.91-5.3369-8.7244-5.0413 8.6344-7.2868 16-1.7512 3.3388-4.1621 16.301-1.8261 9.6287-1.0739 36.866-1.0739 36.866-.94473 16-.94473 16-3.0464 131-2.1318 68-1.1806 90.731 3.8003-2.1242z" fill="#acabaf"/><path d="m87.5 724.97-5-.7774-18-5.9912-5.5-2.5255v-3.7157l4.0076-14.955 8.9123-26.508 3.2753-18 .52848-17.256.52848-17.256-2.3957-24.487-1.1783-11.491-1.1783-11.491-5.7978-2.77-27.406-9.4968-20.168-10.096-6.1289-4.5313v-8.2323l5.6641-8.8916 8.1711-7.3459 5.1402-3.368 20.221 2.3508.86774-.86774 4.0644-13.769 1.8218-53 2.0112-36 .06426-76 1.4714-57.891 1.4714-57.891.5038-4.6087.5038-4.6087 1.0467-43.5 1.0467-43.5 1.9649-28 4.9168-22 5.8587-16 7.3496-13 8.1311-10.562 1.8629-1.1513 8.3463 3.2749 2.7765 4.3895 2.7765 4.3895 8.2392 15.659 6.5917 20.227 3.0318 21.773 2.0319 47 1.0551 38 1.0551 38 1.9031 31 1.9797 121 1.1107 53 1.4669 31 1.4669 31 .54133 3.5.54132 3.5 4.4323 16.468 1 .3761 1 .37611 14-5.8367 2.1941-.98023 14.057 13.919 6.3926 11.173.55718 5.3985.55717 5.3985-9.7584 4.3788-30 10.73-12.202 3.0764-7.1296 2.9789-1.13 5.5436-2.1518 13-2.2842 15 .038 51 2.2489 12 1.0924 5.205 1.0924 5.205 9.0576 19.515 3.8542 16.075.014 3.2667-3.5 1.1418-17 6.2892-13 2.7288-12-.176-5-.7774zm19.5-20.973v-8h-11.755l-1.8846 2.5-2.2614 8-1.137 5.5h17.038zm0-131.06v-4.059l2 1.2361v-4.0274l-6.5-1.1165-6.7964-.47415-7.5988 10.861 1.0132 1.6394h17.882zm-3.4286-49.23v-12.289l6.662-11.921 3.0184-3.4357-15.509-7.0674-15.701 8.3656-18.543 16.904v1.4912l9.2573 9.742 9.4949 9-.61347-10.699-.61347-10.699.98735-.61022.98735-.61021.01082 3.809.01082 3.809 2.7613 9 2.488 5.3899 11.229 1.2332 3 .64492 1.0714.232v-12.289zm24.481-60.711-1.0694-25.5-.94891-27.5-.9489-27.5-1.5178-51-1.5178-51-1.087-57-1.087-57-.90728-25-.90727-25-3.9014-34-6.8962-17-8.6525-16.39-2.3538 3.3901-10.162 20-5.0189 15.52-3.025 14.645-2.0146 63.835-1.0458 15-1.9541 64-.54372 18.5-.54372 18.5-1.9904 89-.95331 32-.95331 32-.02643 31.833-.026434 31.833.83534-.33334.83534-.33333 19.057-12.839.61703-15.081.61703-15.081.0708-74 1.9051-32 .03134-2.5222.031352-2.5222 6.5-7.8857-.15487-23.535-.15487-23.535 1.6031 27 1.2262 8.5 1.2262 8.5 2.8674 13 .95145 7.5.95144 7.5-.25806 58.5-.25807 58.5 1.6289 8.2223 15.174 9.7777 5.1972 3.1656.62214-11.166zm-30.818-205.5-.24199-28-.52161-14.5-.52161-14.5 1.0365 2.3675 1.0365 2.3675-.27291 40.132-.27291 40.132z" fill="#948f8f"/><path d="m88 724.99-4.5-.76979-13-4.2254-11.627-4.291 1.3768-8.2088 2.7752-11 1.8089-4 6.336-19 3.971-18 1.0546-38-2.1798-25-2.1585-21-4.0956-3.5133-11.262-3.1999-27.433-10.896-13.122-7.2935-3.9448-3.6751v-6.4517l4.1966-7.9704 7.2373-7.5287 7.5535-5.2346 17.648 2.2633h3.3264l.65694-2.75.65694-2.75 1.4467-2 1.3974-8 1.4937-31.5 1.4937-31.5 1.7304-142 2.2165-70.564 1.9005-24.436.078-43 1.9508-50 1.9165-14 3.8489-18 5.6545-16 9.7833-17.205 7.4993-8.2042 7.4431 2.2844 5.862 7.4013 9.8235 19.724 4.9427 15 2.2436 9.3888 1.4417 17.806 1.4417 17.806 2.2242 67 1.8538 57 1.9615 59 2.0687 135 2.0675 36 1.9192 24 4.2231 15 .70672.75784.70671.75785 17.24-6.7682 14.644 14.71 5.9136 11.542.0864 9.7268-25 9.8545-22 6.8254-8.0618 2.0524-3.5037 2.562-3.7477 20.979-1.0934 12.172-1.0934 12.172v26.944l1.0206 10.356 1.0206 10.356 2.9838 13.504 6.15 13.496 2.701 6 1.562 5.4315 1.562 5.4315v8.2521l-7.5 3.3069-15 4.8485-10.598 2.2294-11.402-.23524zm19-20.995v-8h-12.755l-1.9718 2.5-1.3687 9-1.1212 4.5h17.217zm-2.0822-18.25 4.0089-5.25-6.4267-1.5893-14-2.9084-.42226-.002-4.7473 9.9195 6.1696 2.4208 7 2.45 4.409.20971 4.0088-5.25zm2.2436-112.1-.31466-3.6522h2.1532v-3.786l-2.6865-1.0309-10.911-1.3632-7.4028 11.149v1.9466l15.5.63308 3.9761-.2446zm-3.3357-50.01-.13484-12.358 6.3594-10.784 1.6006-2.2557 1.6006-2.2557-13.105-5.9419-1.1032-1.7851-16.74 8.6905-19.303 17.285v1.7087l18.054 18.054h2.1401l-1.048-14.5-1.3134-3.3785 1.8697-3.3409.5354 5.8597.5354 5.8597 4.5767 9.3998 11.15 1.2532 1 .34453 1 .34454 2.4605.1578-.13484-12.358zm23.668-80.562-1.6004-42.579-1.8339-54-1.0222-51.5-1.0222-51.5-.97161-34-.97162-34-.61065-24.5-.61066-24.5-.87285-10.5-.87286-10.5-2.1062-18-2.2148-10-14.046-28.863-2.9862 3.863-10.998 22.867-3.9608 13.133-2.8129 13.838-1.9383 51.162-2.9704 86-2.1631 78-1.8792 74-1.3531 107.5h1.5693l19.464-13.167 1.2927-25.333.04798-77 .94757-15 .94757-15 .05446-9.14 6.6527-7.86-.48507-43 1.6471 26 1.1712 7 1.1712 7 4.1124 20 .8708 52-1.83 50.117.83713 12.442.83714 12.442.53987 3.1802.53986 3.1802 20.436 13.168.29725-7.1848.29726-7.1848-1.6004-42.579zm-30.58-200.58-.58627-37 .33627-.41667.33627-.41666 1.025 1.025-.52496 73.808z" fill="#798592"/><path d="m87.921 724.99-4.579-.77503-21.974-7.3695-1.2817-.79216-1.2817-.79217 2.3338-11.761 10.014-30 3.9894-18 1.0546-38-2.1059-25-2.2721-21-3.8301-3.3305-13.488-4.2381-4-1.6444-21.993-8.7076-12.562-6.9821-3.9448-3.6751v-6.4517l4.1966-7.9704 7.2373-7.5287 7.5084-5.2033 20.154 2.4689 1.2742-1.2742 1.2687-3.6903 1.2687-3.6903 2.1547-18.082 2.0603-52 .85464-71 .85464-71 2.2199-69.166 1.8895-25.834.09108-43 1.9556-49 1.8977-15 4.0146-18.777 7.0674-18.223 8.8489-15 6.8695-7.409 7.4427 2.2842 5.862 7.4013 9.8235 19.724 4.9427 15 2.2436 9.3888 2.8506 35.611 2.2555 67 .94652 29.25.94651 29.25 1.9103 57.5 1.0458 67.5 1.0458 67.5 2.0577 37 1.9271 23 2.1077 7.5 2.1077 7.5.70672.75784.70671.75785 17.24-6.7682 14.644 14.71 5.9136 11.542.0864 9.7268-24.931 9.8085-22.069 6.8274-10 2.7023-2.7524 5.7339-1.2711 8.6005-1.2711 8.6005-3.4597 37.953.59647 7.0237.59648 7.0237 2.0142 19 2.3526 13 3.9372 8.5 3.9372 8.5 2.4102 7.1763 2.4102 7.1763v8.7793l-10.5 4.263-12 3.893-10.598 2.212-11.402-.23524zm19.079-20.99v-8h-12.755l-1.9718 2.5-1.3687 9-1.1212 4.5h17.217zm-2.0822-18.25 4.0089-5.25-6.4267-1.5893-14-2.9084-.42226-.002-4.7473 9.9195 6.1696 2.4208 7 2.45 4.409.20971 4.0088-5.25zm2.2436-112.1-.31466-3.6522h2.1532v-3.786l-2.6865-1.0309-10.911-1.3632-7.4028 11.149v1.9466l15.5.63308 3.9761-.2446zm-3.3357-50.01-.13484-12.358 6.3594-10.784 1.6006-2.2557 1.6006-2.2557-13.105-5.9419-1.1032-1.7851-16.74 8.6905-19.303 17.285v1.7087l18.054 18.054h2.1401l-1.048-14.5-1.3134-3.3785 1.8697-3.3409.5354 5.8597.5354 5.8597 4.5767 9.3998 11.15 1.2532 1 .34453 1 .34454 2.4605.1578-.13484-12.358zm-13.947-53.339 1.265-15.803-1.3303-10 1.1519-49.91 1.1519-49.91 6.857-8.0109-.39584-16.585-.39583-16.585.79607 9 2.1555 19 3.7395 17 2.4213 23.235-1.3113 53.765-.62911 15.388-.6291 15.388 1.2145 13.612 1.2145 13.612.92686 3.3318 20.419 13.336.29815-7.2989.29816-7.2989-1.6093-44.035-1.6093-44.035-1.8207-52-1.979-117-1.0422-30-1.0422-30-2.0453-60-1.46-10.5-1.46-10.5-2.2442-10-14.046-28.863-2.9327 3.863-10.699 21.533-4.3063 14.467-2.7962 13.712-1.942 50.288-2.0684 55-3.0297 99-2.087 89-.72693 51.5-.72693 51.5.68717 1.4876 20.503-13.882zm7.5536-237.3v-24.5l.62911 24.5-.62911 24.5z" fill="#777a9a"/><path d="m87.921 724.99-4.579-.77503-21.974-7.3695-1.2817-.79216-1.2817-.79217 2.3338-11.761 10.014-30 3.9894-18 1.0546-38-2.1059-25-2.2721-21-3.8301-3.3305-13.488-4.2381-4-1.6444-21.993-8.7076-12.562-6.9821-3.9448-3.6751v-6.4517l4.1966-7.9704 7.2373-7.5287 7.5084-5.2033 20.154 2.4689 1.2742-1.2742 1.2687-3.6903 1.2687-3.6903 2.1547-18.082 2.0603-52 .85464-71 .85464-71 2.2199-69.166 1.8895-25.834.09108-43 1.9556-49 1.8977-15 4.0146-18.777 7.0674-18.223 8.8489-15 6.8695-7.409 7.4427 2.2842 5.862 7.4013 9.8235 19.724 4.9427 15 2.2436 9.3888 2.8506 35.611 2.2555 67 .94652 29.25.94651 29.25 1.9103 57.5 1.0458 67.5 1.0458 67.5 2.0577 37 1.9271 23 2.1077 7.5 2.1077 7.5.70672.75784.70671.75785 17.24-6.7682 14.644 14.71 5.9136 11.542.0864 9.7268-24.931 9.8085-22.069 6.8274-10 2.7023-2.7524 5.7339-1.2711 8.6005-1.2711 8.6005-3.4597 37.953.59647 7.0237.59648 7.0237 2.0142 19 2.3526 13 3.9372 8.5 3.9372 8.5 2.4102 7.1763 2.4102 7.1763v8.7793l-10.5 4.263-12 3.893-10.598 2.212-11.402-.23524zm19.079-20.99v-8h-12.755l-1.9718 2.5-1.3687 9-1.1212 4.5h17.217zm-2.0822-18.25 4.0089-5.25-6.4267-1.5893-14-2.9084-.42226-.002-4.7473 9.9195 6.1696 2.4208 7 2.45 4.409.20971 4.0088-5.25zm-8.9929-44.282 2.3574-25.532-1.3491-16.437-10.163-10 .61267 22 .61267 22 .0025 16.75.002405 16.75h5.5675zm11.237-67.816-.31466-3.6522h2.1532v-3.786l-2.6865-1.0309-10.911-1.3632-7.4028 11.149v1.9466l15.5.63308 3.9761-.2446zm-3.3357-50.01-.13484-12.358 6.3594-10.784 1.6006-2.2557 1.6006-2.2557-13.105-5.9419-1.1032-1.7851-16.74 8.6905-19.303 17.285v1.7087l18.054 18.054h2.1401l-1.048-14.5-1.3134-3.3785 1.8697-3.3409.5354 5.8597.5354 5.8597 4.5767 9.3998 11.15 1.2532 1 .34453 1 .34454 2.4605.1578-.13484-12.358zm-13.864-54.523 1.3141-16.964-1.3542-11.97 2.2019-95.511 6.8509-8.0038-.39584-16.585-.39583-16.585.75852 9 1.1241 10 1.1241 10 1.8011 7.5 1.8011 7.5 2.5093 28-1.27 45-1.3319 38.712 1.2037 11.644 1.2037 11.644.43636 2.1326.43637 2.1325 20.521 13.402.29815-7.2989.29816-7.2989-1.6093-44.035-1.6093-44.035-1.8207-52-1.979-117-1.0422-30-1.0422-30-2.0453-60-1.46-10.5-1.46-10.5-2.2442-10-14.046-28.863-2.9327 3.863-10.699 21.533-4.3063 14.467-2.7962 13.712-1.942 50.288-2.0684 55-3.0297 99-2.087 89-.72693 51.5-.72693 51.5.68717 1.4876 20.537-13.904zm7.4684-236.12v-23.5l.63341 23.5-.63341 23.5z" fill="#938374"/><path d="m87.921 724.99-4.579-.77503-21.974-7.3695-1.2817-.79216-1.2817-.79217 2.3338-11.761 10.014-30 3.9894-18 1.0546-38-2.1059-25-2.2721-21-3.8301-3.3305-13.488-4.2381-4-1.6444-21.993-8.7076-12.562-6.9821-3.9448-3.6751v-6.4517l4.1966-7.9704 7.2373-7.5287 7.5084-5.2033 20.154 2.4689 1.2742-1.2742 1.2687-3.6903 1.2687-3.6903 2.1547-18.082 2.0603-52 .85464-71 .85464-71 2.2199-69.166 1.8895-25.834.09108-43 1.9556-49 1.8977-15 4.0146-18.777 7.0674-18.223 8.8489-15 6.8695-7.409 7.4427 2.2842 5.862 7.4013 9.8235 19.724 4.9427 15 2.2436 9.3888 2.8506 35.611 2.2555 67 .94652 29.25.94651 29.25 1.9103 57.5 1.0458 67.5 1.0458 67.5 2.0577 37 1.9271 23 2.1077 7.5 2.1077 7.5.70672.75784.70671.75785 17.24-6.7682 14.644 14.71 5.9136 11.542.0864 9.7268-24.931 9.8085-22.069 6.8274-10 2.7023-2.7524 5.7339-1.2711 8.6005-1.2711 8.6005-3.4597 37.953.59647 7.0237.59648 7.0237 2.0142 19 2.3526 13 3.9372 8.5 3.9372 8.5 2.4102 7.1763 2.4102 7.1763v8.7793l-10.5 4.263-12 3.893-10.598 2.212-11.402-.23524zm26.823-14.23 10.309-2.2404-.63762-2.903-.63761-2.903-2.7954-6.6904-47.73.0326-1.2307 7.4446-.02202 6.3582 11.5 2.2685 2 .71544 18.935.1578 10.309-2.2404zm-9.776-24.217 4.0315-5.4573v-.82548l-8.5-2.1804-10.598-2.0795h-2.5982l-3.6605 8.5-.40273.74385-.40273.74384 5.6626 2.3884 11 3.3875 1.4369.23642zm-9.0436-45.074 2.3574-25.532-1.3491-16.437-10.163-10 .61267 22 .61267 22 .0025 16.75.002405 16.75h5.5675zm12.388-69.215.59312-5.7468-1.6432-1.6432-11.763-1.6652-1.7535 2.151-1.7535 2.151-5.047 8.8486 2.554 1.6208 18.22.0306.59312-5.7468zm-20.813-16.738-9-1.2728-16-4.4619-20-6.9366-6.5-2.1792v-1.6644h3.7861l15.714 3.0703 1.5028.81893 1.5028.81894 23.994 3.3496 9.6526 1.9423h8.8187l8.5287-1.9232 24.579-3.1091 3.421-1.9519 12.954-2.8529.77282.47762.77282.47763v8.882h3v-1.7283l9.4988-3.6276 2.6441-2.6441h2.8571v-3.0196l-4-3.4249v-2.2455l-3.9703-3.593-9.5297 3.4718-6 2.6378-13 2.2652-10.834 1.9084h-50.638l-8.5287-1.9212-17-4.1077-14-2.9687-.70321-.001-.7032-.00136-4.0936 9.2542v1.371l9.5 4.0997 8 2.5357 1 .77515 1 .77516 11.976 3.4693 3.0241 1.7837 9 2.7383 26-.014-9-1.2728zm43.807-.67446 7.1926-1.1595 1.7394-1.1772 1.7394-1.1772-4.6056-2.4648-17.873 5.2674-6 1.6661 10.615.20472zm-27.307-31.192v-12.351l5.1737-9.7979 4.1998-4.5265-1.8735-1.8548-13-6.6187-15.556 8-9.4363 7.6759-10.583 10.009 1.1398 3.5912 18.436 17.724 1.1468-14 .35317 4.5797 3.9938 7.8285 6.5062 1.0637 6 .72846 3.5.29966zm-21.805-7.1489.03705-3 .92198 3.5381-.99608 2.4619.03705-3zm7.7667-47.381 1.3141-16.964-1.3542-11.97 2.2019-95.511 6.8509-8.0038-.39584-16.585-.39583-16.585.75852 9 1.1241 10 1.1241 10 1.8011 7.5 1.8011 7.5 2.5093 28-1.27 45-1.3319 38.712 1.2037 11.644 1.2037 11.644.43636 2.1326.43637 2.1325 20.521 13.402.29815-7.2989.29816-7.2989-1.6093-44.035-1.6093-44.035-1.8207-52-1.979-117-1.0422-30-1.0422-30-2.0453-60-1.46-10.5-1.46-10.5-2.2442-10-14.046-28.863-2.9327 3.863-10.699 21.533-4.3063 14.467-2.7962 13.712-1.942 50.288-2.0684 55-3.0297 99-2.087 89-.72693 51.5-.72693 51.5.68717 1.4876 20.537-13.904zm7.4684-236.12v-23.5l.63341 23.5-.63341 23.5z" fill="#84786c"/><path d="m86.5 724.57-6-1.2388-19.048-6.4292-2.6477-1.6364 2.3832-11.761 9.9771-30 3.9697-18 1.0949-37-1.0845-13.5-1.0845-13.5-2.2008-20-3.8713-3.3305-13.488-4.2381-4-1.6514-17-6.5423-17-8.78-4-3.0458.1454-9.4118 5.1365-8 6.7181-6.1827 6.6062-4.5292 19.962 2.5439.76189-.91604.76189-.91603 2.2978-7 2.2477-16.805 1.9191-51.195.87844-71.5.87844-71.5 2.2675-72 1.0145-2.9114.93936-48.544.93936-48.544 2.0855-26 4.9743-24.393 7.5858-18.85 8.2185-13.757 6.8485-7.409 7.6019 2.3331 6.6021 9.076 8.9021 18 3.2497 9.694 3.941 14.706 2.0752 23.6.99693 23 .99694 23 1.4797 46.5 1.4797 46.5 1.9095 59 2.0727 131 1.0431 20.5 1.0431 20.5.98123 10 .98124 10 4.1516 15 1.5048 1.5989 15.353-6.0989h2.5484l14.174 14.202 2.8034 5.649 2.8034 5.649.0594 4.8295.0594 4.8296-17 6.894-21 7.2266-19 5.2803-2.7524 5.739-1.2711 8.6005-1.2711 8.6005-3.4597 37.953.59647 7.0237.59648 7.0237 2.0142 19 2.3526 13 3.9372 8.5 3.9372 8.5 2.4102 7.1763 2.4102 7.1763v8.8314l-13.5 5.1399-10 2.9879-9.3856 2.1882-11.614-.196-6-1.2388zm29.25-13.794 9.25-2.1697-.0438-1.5507-.0438-1.5507-1.7062-4.8762-1.7062-4.8762-48.453-.24765-1.2072 8.053.33003 3.462.33003 3.462 8 1.5473 10 1.8487 16-.93226zm-10.807-23.937 4.1131-5.1658-.70436-2.1131-16.852-3.4637-4.1581-.09147-4.681 9.9942 1.3009 1.3009 15.538 4.5978 1.3299.1072 4.1131-5.1659zm-9.0181-45.366 2.3574-25.532-1.3491-16.437-10.163-10 .61267 22 .61267 22 .0025 16.75.002405 16.75h5.5675zm8.3251-56.448.75-.01999v-5.9006l2.7187-1.5994 1.3606-12.324-5.5794-1.1366-20.822-2.0511-.50611.50611-.50611.5061 2.2301 10.499 3.3757 14.179 16.228-2.6395zm27.631-30.059 11.381-1.8897.35689-.35688.35688-.35689-6.2094-4.5908-13.266 4.1764-11 3.3374-20 .93628-11-2.2054-14.633-2.9371-15.367-5.1997-11-4.3012-4-2.6852 6 1.3254 15.089 3.7237 28.861 5.0625h17.507l24.714-4.0168 18.83-4.9457 1.25-.0187 1.25-.01879v10h.94876l19.051-9.3345v-1.7854l-6.8744-9.0031-.40652-1.1885-.40653-1.1885-6.8126 2.6509-16.145 5.7274-17.148 2.282-58.707-.83286-29-7.3751-4.5861-1.012-3.7465 8.5597-.66742 3.8804 15 5.7477 14 5.1212 16 5.6939 49-1.0922zm-23.131-51.83 4.25-6.3597-.0279-.63604-.0279-.63605-14.833-7.0197-17.11 9.0197-18.848 16.951 1.5114 2.7007 15.835 16.023 3.5 1.8955.10236-6.2852.10236-6.2852.72449 3.0209.72449 3.0209 3.5409 5.404 7.3054 1.1241 8 1.4451.5-13.512.5-13.512 4.25-6.3597zm-26.671 13.285.07895-1.9167 1.0504 2.625-.60417.60417-.60417.60416.07895-1.9167zm7.8827-47.298 1.3141-16.964-1.3542-11.97 2.2019-95.511 6.8509-8.0038-.39584-16.585-.39583-16.585.75852 9 1.1241 10 1.1241 10 1.8011 7.5 1.8011 7.5 1.2582 14.033 1.2582 14.033-.65766 22.967-.65765 22.967-.64401 18.398-.64402 18.398 1.2964 13.102 1.2964 13.102.79918 1.5871.79917 1.5871 17.604 11.16 2.7247.66636-.318-18-1.4828-42-1.4828-42-1.8989-53-1.9748-117-2.0614-59-2.0161-59.504-3.0075-22.496-2.3645-9-6.1347-14-7.9491-14.583-2.7017 3.5833-10.597 21-6.2266 20.818-1.9521 27.182-1.0463 26-1.0463 26-2.9263 103-2.055 64-.98811 52-.9881 52-.12542 54 .11844 1.5623 20.648-13.979 1.3141-16.964zm7.4684-236.12v-23.5l.63341 23.5-.63341 23.5z" fill="#716d6c"/><path d="m86.104 724.36-6.3958-1.386-20.033-6.9606-.87092-.87092 2.2604-10.638 11.886-36.47 2.1768-12.53.57286-18.075.57286-18.075-2.3766-32.849-.95639-6.5-.95639-6.5-.47541-2.1067-.47541-2.1067-27.534-9.5963-15.769-6.6183-14.731-8.4287v-9.723l3.9164-7.6768 9.5836-8.4446 5.7481-2.9787 12.252 2.1468 6.9352.5328 2.7382-5.6341 2.9479-17.366 1.8518-47 .99739-78 .99739-78 1.894-47 2.1291-64 2.0158-71 3.8642-25.288 5.3109-17.712 9.8421-20 8.4761-10.62 8 1.1446 5.6072 6.4756 12.708 26 5.0313 20 .59642 4 .59643 4 1.4914 31.5 1.4914 31.5 2.9629 97 1.9967 62 1.0103 60.5 1.0103 60.5 1.0243 24 1.0243 24 .97855 6.7175.97854 6.7175 1.3858 5.7825 1.3858 5.7825 2.222 5.6343 4.4984-1.3754 11.44-4.7589h2.7223l14.041 14.5 1.6341 3.1722 1.6341 3.1722 3.1501 9.2784-.621 5.0203-23 8.9932-24 7.7268-11.3 3.1346-1.0896 4.7511-1.0896 4.7511-.96502 6.5-.96503 6.5-1.6593 18.5-1.6594 18.5 1.1961 16 1.9676 19 1.1735 6 1.1734 6 3.4567 7.5 3.4567 7.5 5.8038 16.496v8.6306l-14.193 5.5436-19.307 4.8059-11-.23471zm29.646-13.585 9.25-2.1697-.0438-1.5507-.0438-1.5507-3.4125-9.8626-48.453-.1374-1.2075 8.053.33003 3.462.33003 3.462 8 1.5473 10 1.8487 16-.93226 9.25-2.1697zm-10.25-24.217 4-5.3622-.40704-1.6384-20.593-4.3175-1.0725.6182-4.6095 9.2296 1.1192 2.9166 3.5628.1604 10 3.5899 4 .1656 4-5.3622zm-10.645-30.304 1.1608-11.75 2.1282-17.898-.32211-13.928-.32211-13.928-9.5-8.3547v-1.9829l16.382-2.9426.90216-3.4816.90217-3.4816 1.5735-1.0031.71353-6.2075.71352-6.2075-4.6865-1.0499-20.637-2.1506-3.0875-1.1848 1.3932 6.8003 4.7142 20 .69569 40.25.69569 40.25h5.4205zm38.927-101.42 11.282-2.0676-6.4521-4.7602h-3.7429l-4.3659 2.3365-18.003 4.7068-17 1.1831-23-4.1689-31.5-10.419v-1.7971l6.5 1.284 5 1.7677 28 5.6072 33-.0596 26.715-5.605 8.0365-2.8354h2.7486v10h1.424l18.576-9.1576-.02-2.3424-6.9806-8.7815v-1.7185h-4.555l-3.945 2.742-17.545 5.336-17.201 2.104-56.254-.9455-33.743-8.9424-1.7717 4.103-1.7717 4.103-1.2953 4.3317 1.2907.83415 1.2907.83416 15 5.623 24.545 8.5888 1.4549 1.5274 53-1.3437zm-27.414-47.828 1.8681-3.5 2.3819-3.1833 2.382-3.1833v-1.7214l-14-6.4077v-2.0833l-2.5 2.2339-15.573 8.345-18.819 16.87.81525 1.4568.81525 1.4568 15.738 15.901 3.5238 1.8859.10236-6.2852.10236-6.2852.72449 3.0209.72449 3.0209 3.5917 5.4816 4.2546.83605 11 1.6405 1-26zm-24.289 9.4167.07895-1.9167 1.0504 2.625-.60417.60417-.60417.60416.07895-1.9167zm-3.5011-23.167 10.104-6.75 2.3377-29-.015-69 1.3235-43.828 3.1986-3.1986 4.4888-6.3039-.9881-6.8345-.9881-6.8345.16044-8 .16044-8 .28803 5 .28803 5 1.1245 10 1.1245 10 2.1572 6.5 2.1572 6.5.018 127 .8723 5.2701.87231 5.2701 7.237 5.5882 13.451 8.3716h2.0184l-.98798-11.5-3.0201-108-.98823-18.5-.98824-18.5-.9538-65.5-.95381-65.5-1.0348-25.5-1.0348-25.5-2.0245-54-2.0119-19-4.2195-14-10.63-22-2.8986-3.9153-4.2383 6.9153-8.6907 18-5.1665 16-2.0176 12-2.1152 33-2.9996 109-2.0403 43-1.8971 98-1.0779 84-.52065 15.75-.52065 15.75h1.5347l10.104-6.75zm18.75-255.75.0081-7 .39359 3.7723.39359 3.7723-.80332 6.4554.0081-7z" fill="#72674f"/><path d="m86.774 724.43-6.7262-1.3396-20.372-7.0784-.87092-.87092 2.2604-10.638 11.886-36.47 1.0919-6.2649 1.0919-6.2649.56188-18.5.56188-18.5-2.3171-31-2.222-16.335-1.233-1.995-31.98-11.374-13.007-5.8884-12.465-7.4078-.017471-4.7898-.01747-4.7898 3.9164-7.6768 9.5836-8.4446 5.7481-2.9787 13.252 2.2656 5.3256.82921 1.9138-2.4151 2.2227-7 2.2301-15 1.7359-45 2.0416-157 1.8921-47 2.1291-64 2.0158-71 3.8642-25.288 5.3109-17.712 9.8421-20 8.4761-10.62 8 1.1446 5.5869 6.4756 11.865 24 2.5211 8.8517 2.5211 8.8517 2.0067 12.561 3.0212 62.735 2.9629 97 1.9967 62 1.0103 60.5 1.0103 60.5 1.0243 24 1.0243 24 .97855 6.7175.97854 6.7175 1.3858 5.7825 1.3858 5.7825 2.222 5.6343 4.4984-1.376 11.845-4.7582h2.3172l14.041 14.5 1.6341 3.1722 1.6341 3.1722 3.1501 9.2784-.621 5.0615-23 8.8598-24 7.8081-11.3 3.1456-1.0896 4.7511-1.0896 4.7511-.96502 6.5-.96503 6.5-1.6593 18.5-1.6594 18.5 1.1961 16 1.9676 19 1.1817 6 1.1817 6 2.9749 6.5 2.9749 6.5 5.8084 15 1.2028 12.19-20.76 7.2694-13.624 3.0408-9.3759-.23343zm30.813-13.667 8.0864-2.2604-.57094-2-1.6169-5.733-1.6169-5.733-48.783.1232-.98544 3.3427-.24096 5.9438-.24096 5.9438 5.8825 1.6386 10 1.8805 22-.88597 8.0864-2.2603zm-12.732-23.184 4.0945-5.4232.55122-2.4826-17-3.7903-5.0806-1.0462-4.6589 9.9469.41288 1.2386.41288 1.2386 15.914 5.5175 1.2597.22382zm-9.999-31.327 1.1608-11.75 2.1282-17.898-.32211-13.928-.32211-13.928-9.5-8.3547v-2.3918h5.6664l11.334-2.2761.012-3.2239 2.7689-5.3069 1.4053-12.108-4.6865-1.0229-19-2.1568-4.5-1.1221v1.9967l3.9227 18.72.93689 3.1385.93689 3.1385.73877 40.111.73877 40.112h5.4205l1.1608-11.75zm34.758-100.15 3.8871-1.0593 11.782-2.2442-5.7817-4.7278-4.0693-.072-10.931 3.8283-16 3.4848-16-.1472-19.84-3.224-30.66-10.316v-1.5761l4.8789 1.855 20.621 4.0857 8 2.0584 30 1.2247 17-2.2831 18-4.1642 8.7497-2.7897 1.9419 1.2002-1.3142 8.7635h2.8548l19.268-9.1272v-1.1188l-9.0442-12.674-3.4558 1.215-8.0744 3.5614-20.926 5.6439-64-.0558-35-9.2722-2.2644 2.328-3.4394 10.63.35188.33743.35188.33744 19 7.3114 13 4.7139 11 4.2005 56.226-.86779 3.8871-1.0593zm-25.613-31.415v-12.312l4.2844-8.8757 4.7156-6.1888v-2.0151l-14-6.453-.03062-2.3431-1.4694 2.2476-16 8.0257-19.5 17.565v1.4961l18.887 19.166h2.1125l.08778-11.5 2.8371 8 4.1613 3.3904 9.4138 1.2669 2 .6848 2.5.1578v-12.312zm22.516.36138 6.7527-9.9508-8.046-9.5984-4.0662-3.6684-2.8601 4.6684-4.9794 9-3.4505 12.607 5.5133 4.3929 3.1202 2.4364 1.2633.0636 6.7527-9.9508zm-47.938-31.799 10.104-6.75 2.3377-29-.015-69 1.3235-43.828 3.1986-3.1986 4.4888-6.3039-.9881-6.8345-.9881-6.8345.16044-8 .16044-8 .28803 5 .28803 5 1.1245 10 1.1245 10 2.1572 6.5 2.1572 6.5.018 127 .8723 5.2701.87231 5.2701 7.237 5.5882 13.451 8.3716h2.0665l-.99826-10.5-1.0377-37.5-1.0377-37.5-1.9823-61-.46874-2.5-.46875-2.5-.9843-68.5-.98431-68.5-2.0519-50-1.0102-27-1.0102-27-2.0119-19-4.2195-14-10.63-22-2.727-3.6806-2.1787 2.6806-9.9668 19.234-3.3559 10.766-1.7939 3.3137-1.491 8.3431-1.4907 8.3431-2.1277 31-3 111-2.0348 43-1.8971 98-1.0779 84-.52065 15.75-.52065 15.75h1.5347zm18.75-255.75.0081-7 .39359 3.7723.39359 3.7723-.80332 6.4554.0081-7z" fill="#455161"/><path d="m86.774 724.43-6.7262-1.3396-20.372-7.0784-.87092-.87092 2.2604-10.638 11.886-36.47 1.0919-6.2649 1.0919-6.2649.56188-18.5.56188-18.5-2.3171-31-2.222-16.335-1.233-1.995-31.98-11.374-13.007-5.8884-12.465-7.4078-.017471-4.7898-.01747-4.7898 3.9164-7.6768 9.5836-8.4446 5.7481-2.9787 13.252 2.2656 5.3256.82921 1.9138-2.4151 2.2227-7 2.2301-15 1.7359-45 2.0416-157 1.8921-47 2.1291-64 2.0158-71 3.8642-25.288 5.3109-17.712 9.8421-20 8.4761-10.62 8 1.1446 5.5869 6.4756 11.865 24 2.5211 8.8517 2.5211 8.8517 2.0067 12.561 3.0212 62.735 2.9629 97 1.9967 62 1.0103 60.5 1.0103 60.5 1.0243 24 1.0243 24 .97855 6.7175.97854 6.7175 1.3858 5.7825 1.3858 5.7825 2.222 5.6343 4.4984-1.376 11.845-4.7582h2.3172l14.041 14.5 1.6341 3.1722 1.6341 3.1722 3.1501 9.2784-.621 5.0851-30 11.332-18 5.4598-8 2-2.5321 1.6384-1.4415 6.9311-1.4415 6.9311-3.0286 29-1.2719 22 3.2649 30 2.277 11 5.9228 13 5.8084 15 1.2028 12.19-20.76 7.2694-13.624 3.0408-9.3759-.23343zm30.813-13.667 8.0864-2.2604-.57094-2-1.6169-5.733-1.6169-5.733-48.783.1232-.98544 3.3427-.24096 5.9438-.24096 5.9438 5.8825 1.6386 10 1.8805 22-.88597 8.0864-2.2603zm-12.732-23.184 4.0945-5.4232.55122-2.4826-17-3.7903-5.0806-1.0462-4.6589 9.9469.41288 1.2386.41288 1.2386 15.914 5.5175 1.2597.22382zm-10.018-27.327 1.1969-7.75 1.9649-22 .000836-15.764.000836-15.764-10.488-9.8475 2.9876-.91913 14.5-2.3868.006-1.6592.006-1.6592 2.7689-5.3069 1.4053-12.108-4.6865-1.0229-19-2.1568-4.5-1.1221v1.9967l3.9227 18.72 2.0773 6.9868.0038 24.013.65887 27.75.65887 27.75h5.318l1.1969-7.75zm15.163-37.719v-6.4686l-3.5 1.2477-2.5 1.9344v5.1262l4.3486 4.6289h1.6514zm19.613-66.428 3.8871-1.0593 11.782-2.2442-5.7817-4.7278-4.0693-.072-10.931 3.8283-16 3.4848-16-.1472-19.84-3.224-30.66-10.316v-1.5761l4.8789 1.855 20.621 4.0857 8 2.0584 30 1.2247 17-2.2831 18-4.1642 8.7497-2.7897 1.9419 1.2002-1.3142 8.7635h2.8548l19.268-9.1272v-1.1188l-9.0442-12.674-3.4558 1.215-8.0744 3.5614-20.926 5.6439-64-.0558-35-9.2722-2.2644 2.328-3.4394 10.63.35188.33743.35188.33744 19 7.3114 13 4.7139 11 4.2005 56.226-.86779 3.8871-1.0593zm-25.613-31.415v-12.312l4.2844-8.8757 4.7156-6.1888v-2.0151l-14.131-6.5132.41157-1.1414.41157-1.1414 2.3948-6.75 2.3948-6.75h1.233l.62608 6.25.62607 6.25 6.3275 5.3917 14.759 9.1083h2.015l-.51792-4.75-.51791-4.75-1.0846-39.5-1.0846-39.5-1.8284-49-1.981-78-2.2135-112-.8502-19-2.0684-46-2.0433-19.956-4.1469-13.044-10.61-22-2.727-3.6806-2.1787 2.6806-9.9668 19.234-3.3559 10.766-1.7939 3.3137-2.9725 16.686-2.1045 30-1.5112 56.5-1.5112 56.5-1.0239 18.5-1.0239 18.5-1.8916 103-1.0795 77-1.111 38.764 3.5009-1.3434 18.411-12.42 1.3313-17 1.2034-7 3.832 13 2.8272 10 .01187 1.5271.01187 1.5272-16.5 8.1992-19.5 17.585v1.4961l18.887 19.166h2.1125l.08778-11.5 2.8371 8 4.1613 3.3904 9.4138 1.2669 2 .6848 1.25.0789 1.25.07899zm-.76807-80.688-1.2586-7.5-.73667-4.5-.73666-4.5v-57l.85244-13.75.85245-13.75h1.5681l1.2085 6.5 1.1183 54-1.6092 48zm23.284 81.049 6.7527-9.9508-8.046-9.5984-4.0662-3.6684-2.8601 4.6684-4.9794 9-3.4505 12.607 5.5133 4.3929 3.1202 2.4364 1.2633.0636 6.7527-9.9508z" fill="#4e4c4d"/><path d="m87.5 724.54-6-1.2174-22-7.5377-.53521-.49107 2.948-13.798 9.9788-29.367 3.3075-15.633.52118-20 .52118-20-2.2915-29-1.1638-8.8159-1.1638-8.8159-1.6607-.88877-1.6607-.88878-21.633-7.2377-16.168-6.737-11-5.7943-6.4874-3.8217-.006322-4.882-.006323-4.882 4.3847-7.2361 6.3803-6 4.0767-3.345 4.3738-2.3408 13.284 2.2717 5.3256.82921 1.9138-2.4151 2.2227-7 2.2221-15 1.8-46 .94475-73 .94475-73 2.1934-69 .89807-3 2.1421-97 .81411-18 1.2618-13 3.7625-21 5.8488-17 4.5077-10 8.5695-13.031 5.1026-4.7936 8.0828 2.4217 5.9488 9.4027 9.8205 20 3.0572 10.789 3.0572 10.789.99745 12.711.99745 12.711 1.5273 37.5 1.5273 37.5 2.0376 69 1.9461 63 1.0166 60.5 1.0167 60.5 2.1204 47 2.671 17.222 3.6448 12.278 2.0567-.01 15.61-6.0719 7.856 6.222 9.1029 10.655 4.9313 12.583v5.2847l-20.5 8.174-23 7.8673-14.552 3.5228-1.9827 3.7047-3.8327 25.567-1.2208 16.812-1.2208 16.812 1.2561 14.554 1.2561 14.554 3.5534 17.344 5.9992 11.924 6.2438 18.237v7.9271l-6.5 2.2339-11.948 4.277-15.052 3.794-10-.20769-6-1.2174zm29.994-13.56 7.9945-2.1402.18039-.1804.1804-.1804-1.777-6.4918-1.777-6.4918h-49.796l-.82716 6.8728-.82716 6.8728 2.0719 2.0719 13.582 2.5952 23-.78798zm-12.053-23.909 4.5584-5.924v-2.1519h-3.6353l-14.865-3.9529-4.5252-.04707-5.0007 11.307 1.0428 1.0428 16.483 5.5651 1.3831.0846 4.5584-5.924zm-10.938-20.326.44047-1.25 3.0563-34.257v-32.875l-9.9819-8.7187.51063-.51064.51063-.51063 16.336-2.1273 2.5861-10 .0193-2.691.0193-2.691 2-1.2361v-4.8439l-4.5-.90854-8-1.288-6-.70297-9-2.0515-2.7333-.087.64357 2.25.64357 2.25 4.8444 23 .93622 34 .7363 23.25.7363 23.25h5.7556l.44047-1.25zm15.044-50.536-.54989-.5499-4.997 2.6743v6.753l5.5 5.4091.29839-6.8683.29838-6.8683zm26.823-61.033 7.8695-2.086.89229-.89229-6.7704-5.164-13.861 4.1242-11 3.2646-28-.093-13-3.1445-14-4.119-14-4.9435 2-.1264 15 3.007 12 3.0754 32.011 1.197 18.989-2.275 24-5.989 1.5-.016v8.882l1.5054.93036 20.495-9.6761v-2.2882l-9.1169-11.848h-1.0222l-14.361 5.8968-19 4.6032-59.728-.30402-8.2716-2.1194-29.678-7.2324-.31127.32791-.31127.3279-5.0207 12.404 2.3208 1.7192 14 5.4216 27 9.9089 60-.68741 7.8695-2.086zm-32.37-30.081v-11.901l4.5391-9.7972 4.4609-5.6711v-2.5175l-13.91-6.7128 5.2614-15.401 1.6488 1.019.0136 4.191.0137 4.191.58754 2.191.58755 2.191 22.011 14.238.51275-.51276.51276-.51275-1.1671-25.297-1.1671-25.297-3.0463-102-1.7079-44-.11317-29.5-.11318-29.5-2.9094-103-.98141-17-.9814-17-2.1497-21-2.3825-7.1595-2.3824-7.1595-10.324-20.681-2.0577-2.5h-1.6831l-11.106 22.277-5.8644 17.223-3.1443 18-3.9032 124-2.0412 42-3.0484 170-.54198 29.25-.54198 29.25h2.001l1.0643-1.7221 17.484-11.778.74334-.53346.74334-.53345 2.4062-23.734 6.6766 23.722-.03021 1.0392-.03021 1.0392-15.084 7-20.206 18-.39921 1.2241-.39921 1.2241 20.649 20.552 1.1548-13 .1726 2.7342.1726 2.7342 5.5336 6.1932 10.966 1.5888 1.75.12475 1.75.12476zm-.80789-82.099-1.3079-8.5-1.0882-6.6711-1.0882-6.6711.73336-29.329.73336-29.329 1.3254-20 1.7845 2.7693 1.0046 16.615 1.0046 16.615-1.7937 73zm18.434 89.25 2.0026-2.75 9.3709-13.491v-2.5717l-11.628-11.506-1.5722 1.7845-1.5722 1.7845-4.972 10-1.628 5.6539-1.628 5.6539v1.7642l8.3636 6.428h1.2603z" fill="#49443b"/><path d="m88.481 724.54-7.0195-1.2756-21.961-7.4792-.53521-.49107 1.4951-6.8991 1.4951-6.8991 9.9608-29.493 3.2332-14.507.55262-21.582.55262-21.582-2.3113-26.836-1.1043-8.5-1.1043-8.5-3.1839-2.5492-14.05-4.1595-1-.75776-1-.75777-6-1.4316-14-6.0199-10-5.0251-9.5-6.0076v-8.5874l4.5-7.9177 12-10.434 16 1.0557 6.1589 1.2738 3.2068-8.6818 2.3038-15 1.8714-48 .92673-69 .92673-69 1.0489-35.5 1.0489-35.5 1.9582-35 .06624-20 .06625-20 2.7811-60 4.1168-22.258 6.5554-18.742 9.374-17 7.6044-8.7078 8.1379 2.1913 6.5733 10.144 8.6216 17.372 5.2012 16 2.8563 16.217 3.0755 63.783 1.0172 36 1.0172 36 1.9137 49 .57584 25 .57585 25 1.9077 112.94 2.0362 42.061 2.0873 16 2.0538 7.75 2.0538 7.75h2.7288l15.148-6.0173 8.0331 6.4556 9.7113 11.858 2.08 5.7046 2.08 5.7046v5.0035l-26.624 10.363-20.876 6.6162-10.542 2.5215-1.9927 3.7233-3.8429 25.567-2.442 34.294 1.188 13.353 1.1881 13.353 3.2389 18 3.8054 8.0895 3.8053 8.0895 2.5468 7.5868 2.5468 7.5868v7.8118l-6.5 2.2576-15 5.184-13.631 2.894-6.3692-.1805zm23.138-12.083 8.881-1.5386 5.6215-2.4228-1.0029-4-2.5326-9-.27256-.52-49.716-.1826-.72832 1.8513-.72832 1.8513-.07029 6.231-.07028 6.231 4.5 1.0168 10 1.7976 17.238.22368zm-8.5045-21.711 1.1849-2.25.60598-.5.60599-.5 5.4886-7.3666v-1.1334h-4.7486l-8.7322-3.0809-11.019-1.12-4.4338 11.499 1.0518 1.7018h3.0797l6.3023 2.8207 6 2.0214 3.4296.1578 1.1849-2.25zm-8.6113-24 .44047-1.25 3.0563-34.257v-32.875l-9.9819-8.7187.51063-.51064.51063-.51063 16.336-2.1273 2.5861-10 .0193-2.75.01928-2.75h2v-5.9619l-4.5-.92968-6-1.0236-18.8-3.1181-1.0415 1.0416 2.5584 10.492 2.9176 12 1.7936 39 .68956 22.75.68956 22.75h5.7556zm15.044-50.536-.54989-.5499-4.997 2.6743v6.753l5.5 5.4091.29839-6.8683.29838-6.8683zm18.453-59.26 6.5-1.0539 6-1.8407 5.9739-1.7166-8.2536-5.462-11.72 3.2744-12 4.1569-28-.0728-9-2.1297-16-4.0726-13-4.9322 4.137-.1042 10.168 3.0197 19.695 2.9685 27.052.012 16.863-2.1144 18.085-4.6208 5.5-1.3028v10.038h2.2618l20.738-10.128v-.91036l-10.241-13.685-15.925 6.6162-10.334 2.1381-19.826 2.9692-15.174-.0608 3.4843-2.0298-.23168-23.409 2.3866-6 7.0581-10.636-.69724-.56427-13.5-6.2971v-3.759l4.6934-12.485 1.3066 3.4049v8.8364l3.682 3.682 11.818 7.6215 7.5362 4.9936.62504-.62505.62505-.62504-.14777-8.7735-.14778-8.7735-1.0299-14.5-1.0299-14.5-1.539-56-1.5391-56-1.708-38-.1178-55-2.0791-90-1.9454-38-2.0223-26-2.068-12.668-.86748-1.6662-.86747-1.6662-3.4843-10-5.1644-9.846-5.1644-9.8462-1.8642-.30795-5.4169 10-3.0831 6.7442v1.7558h-1.8393l-3.3366 10.5-2.6652 6-3.1507 16.678-.55884.90423-.55884.90422-4.1035 126.51-1.5525 38-2.2613 136-1.9826 35-.1505 62.674.5022.5022.5022.50221 10.655-7.755 10.414-6.5761.94326-3.3468.70101-10.5.70101-10.5 6.7409 23.922-.02725 1.0392-.02725 1.0392-16.931 7.9814-9.8333 9.0186-9.9192 9 9.6312 11.547 11.607 9.9235 1-11.47.68738 3.0619.68738 3.0619 3.8853 4.7981 10.74 1.2965-26 .51857-3-.46735-21-4.6175-17-4.1046-1.2814-.02379-1.2814-.0238-1.232 3.5-1.8526 4.1951-1.8526 4.1951v1.9141l5.5 2.0631 16 6.2794 14 4.9852 10.092 3.368 50.908-.49292zm-24.808-113.95-1.3079-8.5-1.0882-6.6711-1.0882-6.6711.73336-29.329.73336-29.329 1.3254-20 1.7845 2.7693 1.0046 16.615 1.0046 16.615-1.7937 73zm23.301 83.399 6.6472-9.6006.94952-2.4744-12.731-13.705-6.5463 9.5148-5.7723 16.366-.0394 2.3128 9.5 7.0428 1.3455.1444 6.6473-9.6006z" fill="#373143"/><path d="m89.5 724.57-8-1.2931-22-7.5696-.16745-.10281-.16745-.1028.92739-4.9641.92739-4.9641 12.106-37.07 3.0541-20-.95223-53-3.3862-25-1.1709-1.0935-1.1709-1.0936-25-8.6128-17.512-7.4796-13.988-8.3098v-7.9904l3.8107-7.4696 9.8132-9.1791 4.7045-2.5178 14.977 1.3572 5.6523 1.1305 2.2402-5.7415 2.9297-16 1.9405-48 .88779-66 .88779-66 2.1483-83.678.53683-.86861.53683-.8686.99218-44.292.99218-44.292 1.8674-39 3.9807-22 4.8403-15 4.238-9.6103 7.9451-13.39 6.6348-7.7133 8.0952 2.4254 2.741 4.2879 9.176 16 5.3877 13 2.5294 9.5 2.5294 9.5 1.4586 23.5 1.4586 23.5 2.1171 67 .98721 28 .9872 28 .97098 34 .97097 34 1.0491 63 1.0491 63 1.419 21.5 1.419 21.5 2.1061 11 1.6328 5.25 1.6328 5.25h2.893l15.058-6.0295 7.7778 7.0268 3.3145 3.7514 3.3145 3.7514 4.077 6 3.637 11.728-1.8456 2.9212-15 6.018-31.85 10.832h-2.1771l-10.771-7.2538 2.7979-1.4374 15-2.5472 4.7153-2.4303-8.4276-6.1977-6.2877 2.7626-20 5.5907-24-.26949-25-6.0913-7-3.2212 6 .99122 16 2.2409 7.232 1.8628h22.648l11.12-2.002 19-3.7932 9-2.2792 3.5-1.0605v11.135h.69809l22.302-11.027v-1.1151l-9.1634-12.841-.96212-.59462-.96211-.59462-1.235 1.025-1.235 1.025-16.942 6.0249-12 2.1547-25.5 1.2516v-25.179l2.1392-5.6302 7.0581-10.636-.34862-.27554-.34862-.27555-8-4.2782-5.7033-2.0624.47301-1.2361.47302-1.2361 3.5941-11.41 1.6632 1.0279v9.5213l4.5371 3.8607 11.432 7.5h1.2153l5.0852 4h2.3851l-.67446-27.5-.99337-8-.99336-8-1.5326-67.5-1.5326-67.5-.96421-9.7892-.9642-9.7892.0342-57.422-1.0729-46-1.0729-46-.9526-18.5-.95261-18.5-.98801-11.5-.988-11.5-2.1464-12.963-.80012-1.0186-.80011-1.0186-2.5548-7.9213-2.4057-5.0393-2.4057-5.0393-1.9442-3-4.0071-8.4172-1.7164-1.0608-2.0307 2.478-9.8824 19-2.5742 8-1.5477 2-3.4072 17-1.948 4.1741-3.9679 121.83-1.6002 40-1.1597 71.5-1.1597 71.5-1.9401 19-.65073 76.5h2.499l1.3703-1.3703 1.3703-1.3703 6.4022-3.3107v-1.9486h2.0215l9.7014-6.5 1.4666-19.913.81827 1.4622.81827 1.4622 4.4373 18.901-1.7634.6309-14.46 7.4569-13.476 12-6.9648 6.2552 7.9006 8.6045 8.2034 8.1402 4.7966 3.9098-7.4928 1.5575-22.97-3.9268-3.5375-1.9701-15.714-3.0703h-1.6925l-4.153 9.3886-1.1146 4.4409 9.3994 4.1578 8.2746 2.3629 2.1834 1.632 14.817 5.0349 12 3.7844 7.6051 1.309.34904 1.1948.34904 1.1948 3.1815 13 3.004 17 .6224 37.75.6224 37.75h22.461l.57149-25.75.57148-25.75-1.0351-5.5-1.0352-5.5 1.1039-23 4.2284-12.25 6.7741-10.744 1.3757 3.585-2.2675 21.704-2.2675 21.704-.47509 19.229-.4751 19.229 2.3324 15.951 5.6562 16.591 5.5008 12 2.8917 7.5 2.8917 7.5 1.1731 11-12.71 4.6451-17 4.6322-10 1.0824zm22.893-12.168 8.8934-1.5101 5.5622-2.3887-2.2271-6.8023-2.2271-6.8023-49.667-.1611-1.5678 2.8014-.50811 12.45 1.4832 1.5144 19.364 3.3463 12-.93741 8.8934-1.5101zm-7.8352-23.502 2.9418-4.1034 3.5-3.2378v-2.5555h-3.9059l-2.2971-.97657-2.297-.97658-15.688-2.842-2.902 7.2952-1.135 2.2702-1.135 2.2702 1.8596 1.8215 15 5.0869 3.1164.0512 2.9418-4.1034zm22.675-163.45 6.7664-9.8962v-1.5337l-12.866-13.518-1.5717 2-1.5717 2-6.6981 14-2.3957 9.7965.80173.79971.80173.79972 8 6.0448 1.9671-.59646zm-76.234 18.552-2.5-.80064 4-.1688 3 1.9388-2-.1688zm43.269-7.693 1.769-.46099 1.231.49804 1.231.49805-6-.0742 1.769-.46099zm-11.179-6.057.09019-5.75 1.9106 7 5.0205 4.5h-7.1115l.09019-5.75z" fill="#252422"/></g></svg>
